<svg id="visual" viewBox="0 0 900 600" width="900" height="600" xmlns="http://www.w3.org/2000/svg" xmlns:xlink="http://www.w3.org/1999/xlink" version="1.1"><rect x="0" y="0" width="900" height="600" fill="#FAEDC6"></rect><defs><linearGradient id="grad1_0" x1="33.3%" y1="0%" x2="100%" y2="100%"><stop offset="20%" stop-color="#faedc6" stop-opacity="1"></stop><stop offset="80%" stop-color="#faedc6" stop-opacity="1"></stop></linearGradient></defs><defs><linearGradient id="grad2_0" x1="0%" y1="0%" x2="66.7%" y2="100%"><stop offset="20%" stop-color="#faedc6" stop-opacity="1"></stop><stop offset="80%" stop-color="#faedc6" stop-opacity="1"></stop></linearGradient></defs><g transform="translate(900, 0)"><path d="M0 243.4C-29.8 228 -59.7 212.6 -80.4 194C-101.1 175.4 -112.6 153.7 -138.6 138.6C-164.6 123.5 -205 115.1 -224.8 93.1C-244.7 71.2 -244 35.6 -243.4 0L0 0Z" fill="#3E8E7E"></path></g><g transform="translate(0, 600)"><path d="M0 -243.4C31.5 -233.7 63 -224 85.7 -206.9C108.5 -189.9 122.4 -165.4 147.1 -147.1C171.7 -128.8 207 -116.6 224.8 -93.1C242.7 -69.7 243 -34.8 243.4 0L0 0Z" fill="#3E8E7E"></path></g></svg>